<?xml version="1.0" encoding="UTF-8"?>
<svg xmlns="http://www.w3.org/2000/svg" xmlns:xlink="http://www.w3.org/1999/xlink" viewBox="0 0 480 480" width="480px" height="480px">
<g id="surface8738470">
<path style=" stroke:none;fill-rule:nonzero;fill:rgb(0%,0%,0%);fill-opacity:1;" d="M 423.398438 4.199219 L 56.601562 4.199219 C 27.648438 4.199219 4.199219 27.648438 4.199219 56.601562 L 4.199219 423.398438 C 4.199219 452.351562 27.648438 475.800781 56.601562 475.800781 L 423.398438 475.800781 C 452.351562 475.800781 475.800781 452.351562 475.800781 423.398438 L 475.800781 56.601562 C 475.800781 27.648438 452.351562 4.199219 423.398438 4.199219 Z M 161.398438 371 L 95.296875 371 L 95.296875 187.601562 L 161.398438 187.601562 Z M 127.183594 153.984375 C 106.984375 153.984375 93.488281 140.519531 93.488281 122.546875 C 93.488281 104.570312 106.957031 91.105469 129.410156 91.105469 C 149.609375 91.105469 163.101562 104.570312 163.101562 122.546875 C 163.101562 140.519531 149.636719 153.984375 127.183594 153.984375 Z M 397.199219 371 L 333.21875 371 L 333.21875 270.757812 C 333.21875 243.039062 316.164062 236.644531 309.769531 236.644531 C 303.378906 236.644531 282.050781 240.917969 282.050781 270.757812 C 282.050781 275.03125 282.050781 371 282.050781 371 L 215.949219 371 L 215.949219 187.601562 L 282.050781 187.601562 L 282.050781 213.199219 C 290.566406 198.261719 307.621094 187.601562 339.613281 187.601562 C 371.601562 187.601562 397.199219 213.199219 397.199219 270.757812 Z M 397.199219 371 "/>
</g>
</svg>
